<svg width="400" height="250" viewBox="0 0 400 250" xmlns="http://www.w3.org/2000/svg">
  <defs>
    <linearGradient id="portfolioGradient6" x1="0%" y1="0%" x2="100%" y2="100%">
      <stop offset="0%" style="stop-color:#34495e;stop-opacity:1" />
      <stop offset="100%" style="stop-color:#2c3e50;stop-opacity:1" />
    </linearGradient>
  </defs>
  
  <!-- Background -->
  <rect width="400" height="250" fill="url(#portfolioGradient6)"/>
  
  <!-- Digital transformation -->
  <rect x="50" y="150" width="300" height="80" fill="#2c3e50" opacity="0.8"/>
  
  <!-- Computer screens -->
  <rect x="100" y="120" width="40" height="30" fill="#ff6b35"/>
  <rect x="160" y="120" width="40" height="30" fill="#ff6b35"/>
  <rect x="220" y="120" width="40" height="30" fill="#ff6b35"/>
  <rect x="280" y="120" width="40" height="30" fill="#ff6b35"/>
  
  <!-- People learning -->
  <circle cx="120" cy="100" r="8" fill="white"/>
  <rect x="115" y="108" width="10" height="15" fill="white"/>
  
  <circle cx="180" cy="100" r="8" fill="white"/>
  <rect x="175" y="108" width="10" height="15" fill="white"/>
  
  <circle cx="240" cy="100" r="8" fill="white"/>
  <rect x="235" y="108" width="10" height="15" fill="white"/>
  
  <circle cx="300" cy="100" r="8" fill="white"/>
  <rect x="295" y="108" width="10" height="15" fill="white"/>
  
  <!-- Text -->
  <text x="200" y="50" font-family="Arial, sans-serif" font-size="20" font-weight="bold" text-anchor="middle" fill="white">Digital Transformation Training</text>
  <text x="200" y="75" font-family="Arial, sans-serif" font-size="14" text-anchor="middle" fill="white">Traditional Industry Digital Skills</text>
</svg>
