<svg width="400" height="250" viewBox="0 0 400 250" xmlns="http://www.w3.org/2000/svg">
  <defs>
    <linearGradient id="portfolioGradient1" x1="0%" y1="0%" x2="100%" y2="100%">
      <stop offset="0%" style="stop-color:#3498db;stop-opacity:1" />
      <stop offset="100%" style="stop-color:#2980b9;stop-opacity:1" />
    </linearGradient>
  </defs>
  
  <!-- Background -->
  <rect width="400" height="250" fill="url(#portfolioGradient1)"/>
  
  <!-- Tech startup office -->
  <rect x="50" y="150" width="300" height="80" fill="#2c3e50" opacity="0.8"/>
  
  <!-- Modern office elements -->
  <rect x="80" y="120" width="60" height="40" fill="#ff6b35"/>
  <rect x="160" y="120" width="60" height="40" fill="#ff6b35"/>
  <rect x="240" y="120" width="60" height="40" fill="#ff6b35"/>
  
  <!-- People working -->
  <circle cx="110" cy="100" r="8" fill="white"/>
  <rect x="105" y="108" width="10" height="15" fill="white"/>
  
  <circle cx="190" cy="100" r="8" fill="white"/>
  <rect x="185" y="108" width="10" height="15" fill="white"/>
  
  <circle cx="270" cy="100" r="8" fill="white"/>
  <rect x="265" y="108" width="10" height="15" fill="white"/>
  
  <!-- Laptops -->
  <rect x="100" y="130" width="20" height="15" fill="#2c3e50"/>
  <rect x="180" y="130" width="20" height="15" fill="#2c3e50"/>
  <rect x="260" y="130" width="20" height="15" fill="#2c3e50"/>
  
  <!-- Text -->
  <text x="200" y="50" font-family="Arial, sans-serif" font-size="20" font-weight="bold" text-anchor="middle" fill="white">Tech Startup Recruitment</text>
  <text x="200" y="75" font-family="Arial, sans-serif" font-size="14" text-anchor="middle" fill="white">50+ Technical Professionals Placed</text>
</svg>
